# xmcd CD database file
#
# Track frame offsets:
#	150
#	13616
#	31343
#	56450
#	72162
#	86457
#	109903
#	128761
#	148175
#	166119
#	186270
#	207144
#	223132
#	235592
#	252875
#
# Disc length: 3618 seconds
#
# Revision: 1
# Processed by: cddbd v1.5.2PL0 Copyright (c) Steve Scherf et al.
# Submitted via: CDex 1.70beta2
#
DISCID=cd0e200f
DTITLE=J.J. Cale and Eric Clapton - The Road to Escondido
DYEAR=2006
DGENRE=Blues
TTITLE0=Enya-The_Celts
TTITLE1=[NoDRM] - JJ_Cale___Eric_-Anyway_The_Wind_Blow
TTITLE2=[NoDRM] - JJ_Cale___Eric_-Danger
TTITLE3=[NoDRM] - JJ_Cale___Eric_-Dead_End_Road
TTITLE4=[NoDRM] - JJ_Cale___Eric_-Dont_Cry_Sister
TTITLE5=[NoDRM] - JJ_Cale___Eric_-Hard_To_Thrill
TTITLE6=[NoDRM] - JJ_Cale___Eric_-Heads_In_Georgia
TTITLE7=[NoDRM] - JJ_Cale___Eric_-Its_Easy
TTITLE8=[NoDRM] - JJ_Cale___Eric_-Last_Will_And_Testam
TTITLE9=[NoDRM] - JJ_Cale___Eric_-Missing_Person
TTITLE10=[NoDRM] - JJ_Cale___Eric_-Ride_The_River
TTITLE11=[NoDRM] - JJ_Cale___Eric_-Sporting_Life_Blues
TTITLE12=[NoDRM] - JJ_Cale___Eric_-Three_Little_Girls
TTITLE13=[NoDRM] - JJ_Cale___Eric_-When_The_War_Is_Over
TTITLE14=[NoDRM] - JJ_Cale___Eric_-Who_Am_I_Telling_You
EXTD=YEAR: 2006
EXTT0=
EXTT1=
EXTT2=
EXTT3=
EXTT4=
EXTT5=
EXTT6=
EXTT7=
EXTT8=
EXTT9=
EXTT10=
EXTT11=
EXTT12=
EXTT13=
EXTT14=
PLAYORDER=
